<?xml version="1.0" standalone="no"?>
<!DOCTYPE svg PUBLIC "-//W3C//DTD SVG 20010904//EN"
 "http://www.w3.org/TR/2001/REC-SVG-20010904/DTD/svg10.dtd">
<svg version="1.0" xmlns="http://www.w3.org/2000/svg"
 width="213.000000pt" height="108.000000pt" viewBox="0 0 213.000000 108.000000"
 preserveAspectRatio="xMidYMid meet">
<metadata>
Created by potrace 1.13, written by Peter Selinger 2001-2015
</metadata>
<g transform="translate(0.000000,108.000000) scale(0.100000,-0.100000)"
fill="#000000" stroke="none">
<path d="M1035 799 c-10 -44 -22 -82 -26 -85 -5 -2 -18 -18 -29 -34 l-21 -30
65 0 c62 0 66 1 81 30 8 16 15 31 15 34 0 3 -21 7 -47 9 l-48 3 56 2 c53 2 56
4 72 37 9 20 17 38 17 40 0 5 -102 75 -110 75 -3 0 -14 -36 -25 -81z"/>
<path d="M1411 629 c-34 -26 -41 -36 -36 -53 4 -12 9 -38 12 -58 3 -21 9 -38
15 -38 5 0 39 18 75 40 89 53 141 61 231 34 19 -6 22 -3 22 24 0 16 -6 35 -14
41 -12 10 -191 40 -242 41 -11 0 -39 -14 -63 -31z"/>
<path d="M655 640 c-4 -6 -5 -36 -3 -68 3 -51 1 -57 -17 -57 -18 0 -20 8 -23
63 -3 58 -5 63 -25 60 -27 -4 -67 -62 -67 -97 0 -39 36 -90 76 -107 121 -51
213 115 110 198 -24 20 -42 23 -51 8z"/>
<path d="M828 614 c-35 -18 -48 -43 -48 -89 l0 -37 28 18 c59 39 83 47 107 36
63 -29 67 -98 9 -135 -19 -12 -34 -24 -34 -27 0 -3 37 -11 82 -19 94 -14 251
-62 289 -88 15 -10 45 -31 67 -47 82 -57 151 -45 301 52 50 33 73 42 108 42
38 0 45 4 53 26 14 36 12 79 -4 118 -12 28 -24 37 -77 55 -103 35 -166 25
-266 -43 -69 -47 -113 -33 -208 64 -33 34 -74 68 -92 76 -46 20 -278 19 -315
-2z"/>
<path d="M751 445 c-63 -41 -137 -96 -164 -124 l-50 -49 37 -51 c21 -28 41
-51 45 -51 5 0 29 31 54 69 40 60 58 76 148 133 117 73 128 85 111 122 -19 42
-55 32 -181 -49z"/>
</g>
</svg>
