<?xml version="1.0" standalone="no"?>
<!DOCTYPE svg PUBLIC "-//W3C//DTD SVG 20010904//EN"
 "http://www.w3.org/TR/2001/REC-SVG-20010904/DTD/svg10.dtd">
<svg version="1.0" xmlns="http://www.w3.org/2000/svg"
 width="113.000000pt" height="127.000000pt" viewBox="0 0 113.000000 127.000000"
 preserveAspectRatio="xMidYMid meet">
<metadata>
Created by potrace 1.13, written by Peter Selinger 2001-2015
</metadata>
<g transform="translate(0.000000,127.000000) scale(0.100000,-0.100000)"
fill="#000000" stroke="none">
<path d="M376 1215 c-19 -19 -21 -56 -4 -73 7 -7 25 -12 40 -12 l28 0 0 -124
0 -123 -47 -18 c-50 -19 -156 -82 -161 -96 -2 -4 -20 -30 -41 -56 -21 -26 -48
-76 -60 -110 -20 -54 -23 -77 -19 -165 3 -91 7 -111 36 -173 38 -79 82 -130
162 -184 78 -52 98 -59 192 -66 140 -11 251 29 351 124 93 89 132 184 130 321
-2 173 -90 311 -245 386 -29 14 -60 29 -68 33 -12 6 -15 33 -17 130 -2 110 0
121 16 121 10 0 26 9 37 21 17 19 17 23 3 47 l-15 27 -151 3 c-128 2 -154 0
-167 -13z m212 -225 c2 -107 6 -138 19 -152 9 -10 21 -18 27 -18 37 0 136 -63
188 -119 47 -51 61 -74 79 -133 40 -135 16 -251 -76 -361 -49 -60 -101 -92
-182 -110 -34 -8 -65 -17 -70 -20 -11 -7 -121 11 -158 25 -56 22 -128 78 -170
133 -152 195 -55 495 186 576 67 23 69 27 69 181 l0 139 43 -3 42 -3 3 -135z"/>
<path d="M783 554 c-20 -20 -51 -36 -82 -44 -48 -11 -53 -10 -129 24 -67 30
-91 36 -150 36 -87 0 -121 -7 -152 -30 -22 -16 -24 -26 -24 -87 1 -93 31 -159
99 -222 159 -144 410 -85 485 115 24 66 25 157 1 206 l-16 33 -32 -31z"/>
</g>
</svg>
