<?xml version="1.0" standalone="no"?>
<!DOCTYPE svg PUBLIC "-//W3C//DTD SVG 20010904//EN"
 "http://www.w3.org/TR/2001/REC-SVG-20010904/DTD/svg10.dtd">
<svg version="1.0" xmlns="http://www.w3.org/2000/svg"
 width="340.000000pt" height="340.000000pt" viewBox="0 0 340.000000 340.000000"
 preserveAspectRatio="xMidYMid meet">
<metadata>
Created by potrace 1.13, written by Peter Selinger 2001-2015
</metadata>
<g transform="translate(0.000000,340.000000) scale(0.100000,-0.100000)"
fill="#000000" stroke="none">
<path d="M1480 3370 c-99 -17 -282 -59 -293 -67 -7 -5 -32 -15 -57 -22 -61
-18 -165 -65 -274 -125 -11 -6 -29 -19 -40 -28 -11 -10 -23 -18 -27 -18 -5 0
-48 -30 -96 -66 -130 -97 -335 -313 -381 -401 -7 -12 -18 -27 -25 -35 -7 -7
-19 -28 -26 -46 -8 -19 -19 -39 -25 -45 -14 -14 -81 -152 -91 -187 -4 -14 -16
-44 -26 -67 -11 -23 -24 -66 -29 -95 -6 -29 -16 -64 -22 -78 -36 -86 -50 -473
-23 -645 15 -98 61 -283 74 -300 5 -5 14 -27 21 -48 41 -129 167 -342 279
-472 47 -54 234 -235 243 -235 5 0 16 -8 26 -17 26 -26 101 -77 142 -98 19
-10 37 -21 40 -25 7 -10 174 -88 205 -96 14 -3 25 -9 25 -13 0 -3 30 -15 68
-25 37 -10 94 -26 127 -36 33 -10 110 -23 170 -29 61 -7 140 -16 176 -21 36
-5 79 -6 95 -2 16 5 54 9 84 11 74 2 267 30 299 43 14 5 50 16 78 24 106 28
375 155 428 202 6 5 24 17 40 28 35 22 35 22 145 118 47 40 107 100 135 132
27 32 55 66 62 74 94 109 215 317 253 437 7 21 16 43 21 48 13 17 59 202 74
300 26 161 12 583 -20 635 -4 6 -15 47 -26 92 -11 45 -23 86 -28 92 -5 6 -16
34 -25 61 -9 28 -34 84 -56 125 -21 41 -47 91 -57 110 -10 19 -21 37 -26 38
-4 2 -15 18 -24 35 -8 18 -22 39 -29 47 -8 8 -33 40 -56 70 -48 64 -76 95
-137 153 -25 23 -54 51 -65 63 -27 26 -183 144 -191 144 -4 0 -19 8 -33 19
-15 10 -43 28 -63 39 -20 11 -45 25 -55 31 -127 71 -327 133 -549 171 -61 10
-373 10 -435 0z m432 -1300 l3 -749 23 -23 c21 -21 32 -23 162 -26 l140 -4 0
-129 0 -129 -552 2 -553 3 -3 105 c-4 161 -18 148 159 152 l151 3 24 28 24 28
0 539 0 540 -177 2 -178 3 -3 121 c-2 89 1 124 10 131 7 6 77 17 155 26 79 9
151 21 160 26 10 5 56 19 103 30 47 11 112 31 145 45 45 19 79 25 132 26 l73
0 2 -750z m-1375 333 c82 -81 132 -195 140 -320 4 -49 -1 -81 -22 -145 -15
-45 -35 -92 -45 -105 l-18 -23 -31 26 c-35 29 -41 19 -12 -18 49 -62 74 -139
79 -244 2 -64 0 -109 -7 -122 -10 -20 -13 -20 -46 -6 -54 22 -63 17 -20 -12
98 -65 185 -201 199 -308 l6 -49 -69 5 c-92 7 -165 45 -257 133 -80 77 -127
163 -138 248 l-6 49 63 -7 c34 -4 82 -14 107 -21 25 -8 47 -14 50 -14 2 0 -19
21 -48 46 -29 25 -62 63 -72 83 -11 20 -25 43 -30 51 -38 60 -53 110 -57 195
-3 51 0 102 6 117 10 26 12 27 43 16 41 -14 116 -65 141 -96 32 -39 31 -16 -2
31 -43 62 -74 182 -75 288 0 48 5 93 10 100 6 8 14 25 17 39 9 33 44 90 57 90
5 0 22 -12 37 -27z m2402 -28 c13 -28 27 -57 31 -65 38 -81 4 -302 -61 -396
-16 -24 -25 -44 -20 -44 6 0 18 11 26 24 9 13 29 29 45 36 17 7 30 16 30 20 0
12 83 41 92 32 16 -16 24 -97 16 -162 -6 -58 -30 -126 -59 -170 -5 -8 -15 -27
-22 -42 -15 -31 -80 -104 -99 -111 -30 -10 3 -18 38 -8 22 5 65 13 97 17 l59
7 -7 -49 c-13 -89 -59 -172 -139 -249 -92 -88 -165 -126 -257 -133 l-69 -5 6
49 c14 107 101 243 199 308 43 28 29 36 -19 11 -37 -19 -48 -10 -55 47 -15
105 21 252 79 325 30 38 24 48 -11 19 l-31 -26 -20 25 c-34 44 -70 179 -65
249 5 81 37 186 73 239 43 64 87 108 104 105 8 -2 26 -26 39 -53z m-2226
-1318 c114 -33 222 -120 271 -216 l24 -49 -21 -8 c-60 -20 -60 -22 3 -23 75
-1 190 -34 237 -68 17 -13 36 -23 41 -23 5 0 22 -16 37 -36 27 -35 27 -38 10
-50 -10 -7 -23 -15 -29 -17 -6 -2 -8 -8 -4 -12 4 -4 34 2 66 14 43 15 82 21
144 21 47 0 88 -3 92 -7 4 -4 32 -15 62 -24 54 -17 56 -17 127 7 74 24 231 34
252 16 14 -12 96 -35 102 -28 3 2 -9 12 -26 21 -38 19 -38 26 -6 61 28 31 49
44 115 74 25 12 54 26 65 32 10 6 60 13 110 16 51 3 81 8 70 12 -11 4 -30 10
-42 15 l-22 7 24 48 c24 47 127 160 146 160 5 0 22 9 37 20 33 24 129 52 201
58 45 3 90 -3 159 -24 21 -6 -17 -85 -70 -139 -43 -46 -106 -84 -213 -130 -22
-10 -76 -21 -120 -25 -44 -4 -66 -8 -48 -9 17 0 34 -5 37 -10 3 -5 18 -12 33
-16 37 -9 112 -57 113 -72 0 -14 -82 -83 -99 -83 -6 0 -11 -4 -11 -9 0 -19
-137 -52 -235 -56 -36 -2 -114 11 -185 30 -19 5 -16 0 16 -22 66 -46 124 -110
124 -137 0 -14 -110 -55 -156 -59 -57 -5 -185 10 -199 24 -5 5 -16 9 -25 9
-49 0 -173 87 -208 146 -12 18 -12 18 -23 1 -30 -51 -107 -111 -168 -133 -25
-9 -54 -20 -63 -24 -26 -14 -172 -30 -214 -23 -50 7 -144 51 -144 66 0 17 76
97 124 130 32 23 36 28 16 23 -148 -37 -153 -38 -240 -26 -95 13 -180 37 -180
51 0 5 -7 9 -15 9 -18 0 -95 68 -95 84 0 17 78 62 145 82 l60 19 -78 6 c-42 4
-83 11 -90 16 -6 6 -25 13 -42 17 -39 10 -146 70 -176 100 -49 49 -67 73 -83
110 -18 43 -14 56 17 56 12 0 29 5 37 10 21 15 144 7 213 -13z m1020 -628 c41
-21 104 -99 117 -142 17 -63 10 -121 -15 -125 -28 -4 -101 61 -116 103 -7 19
-16 35 -19 35 -3 0 -12 -16 -19 -35 -13 -36 -78 -99 -112 -108 -25 -7 -34 26
-26 95 8 60 43 116 101 158 44 33 57 36 89 19z"/>
</g>
</svg>
