<?xml version="1.0" standalone="no"?>
<!DOCTYPE svg PUBLIC "-//W3C//DTD SVG 20010904//EN"
 "http://www.w3.org/TR/2001/REC-SVG-20010904/DTD/svg10.dtd">
<svg version="1.0" xmlns="http://www.w3.org/2000/svg"
 width="512.000000pt" height="512.000000pt" viewBox="0 0 512.000000 512.000000"
 preserveAspectRatio="xMidYMid meet">
<metadata>
Created by potrace 1.13, written by Peter Selinger 2001-2015
</metadata>
<g transform="translate(0.000000,512.000000) scale(0.100000,-0.100000)"
fill="#000000" stroke="none">
<path d="M317 4799 l-318 -319 51 -50 c28 -28 54 -50 58 -50 9 0 632 623 632
632 0 7 -97 109 -102 107 -2 0 -146 -144 -321 -320z"/>
<path d="M2379 5116 c-2 -2 -43 -7 -90 -10 -47 -4 -94 -8 -105 -10 -10 -2 -48
-7 -84 -11 -36 -4 -101 -13 -145 -21 -44 -8 -98 -17 -120 -20 -22 -3 -91 -17
-153 -30 -63 -13 -126 -26 -140 -29 -26 -5 -49 -10 -89 -19 -10 -2 -52 -12
-93 -21 -109 -25 -453 -116 -467 -124 -8 -4 52 -70 160 -178 l172 -171 160 39
c88 21 237 55 330 74 159 32 192 38 270 51 17 2 41 6 55 9 14 2 45 7 70 10 25
4 56 8 70 10 35 5 114 14 185 21 76 7 334 6 400 -1 28 -3 73 -8 100 -11 28 -2
61 -7 75 -9 14 -2 48 -7 75 -10 52 -6 90 -12 90 -15 0 -1 16 -3 35 -5 20 -1
60 -8 91 -14 30 -6 67 -14 81 -16 96 -18 312 -66 503 -114 l79 -19 173 171
c94 94 170 173 169 175 -5 4 -213 62 -245 68 -14 3 -27 7 -31 9 -4 3 -136 35
-285 69 -5 2 -28 6 -50 10 -22 5 -65 14 -95 21 -30 8 -72 16 -94 19 -21 4 -41
8 -45 10 -3 2 -27 7 -53 10 -26 4 -53 8 -60 11 -7 2 -31 7 -53 10 -50 7 -162
24 -195 30 -13 3 -58 7 -100 11 -41 3 -79 8 -83 11 -10 6 -462 15 -468 9z"/>
<path d="M4430 5070 c-27 -27 -50 -53 -50 -57 0 -10 615 -626 630 -631 5 -2
32 19 59 47 l51 51 -163 163 c-89 89 -233 233 -319 319 l-158 158 -50 -50z"/>
<path d="M532 4587 l-212 -212 427 -428 428 -427 212 212 213 213 -40 40 c-22
23 -37 45 -33 50 5 4 3 5 -3 2 -14 -8 -217 196 -207 208 4 4 3 5 -3 2 -12 -7
-107 85 -99 96 3 4 2 5 -2 2 -11 -8 -393 377 -386 389 4 6 2 8 -2 3 -5 -4 -25
8 -45 28 l-36 35 -212 -213z"/>
<path d="M3948 4373 l-428 -427 78 -81 c42 -44 138 -140 213 -213 l135 -132
425 425 c233 234 425 427 426 428 1 2 -93 98 -210 215 l-212 212 -427 -427z"/>
<path d="M334 4145 c13 -204 18 -273 21 -300 1 -16 6 -66 10 -110 4 -44 9 -87
10 -95 2 -9 6 -43 10 -75 4 -33 8 -71 10 -85 2 -14 7 -45 10 -70 3 -25 8 -61
11 -80 3 -19 7 -48 10 -65 8 -59 45 -251 54 -285 5 -19 12 -51 15 -70 15 -90
110 -445 155 -580 38 -113 109 -307 129 -353 12 -27 19 -53 15 -58 -3 -5 -1
-9 4 -9 6 0 17 -19 27 -42 15 -37 84 -187 91 -197 5 -6 41 24 145 121 57 53
123 114 147 135 25 23 39 43 34 48 -12 13 -117 276 -154 385 -42 124 -102 324
-123 410 -17 70 -23 80 -88 146 l-69 72 45 41 c42 39 45 44 36 74 -5 18 -12
52 -15 77 -3 25 -8 48 -10 51 -5 8 -41 254 -60 404 -16 129 4 102 -245 350
l-229 230 4 -70z"/>
<path d="M4558 3982 c-172 -172 -228 -235 -232 -257 -2 -17 -7 -57 -11 -90 -3
-33 -12 -103 -20 -155 -8 -52 -17 -113 -20 -135 -3 -22 -10 -62 -15 -90 -37
-197 -38 -184 10 -229 l41 -39 -65 -66 -66 -66 -54 -191 c-58 -206 -126 -404
-187 -549 -20 -49 -40 -100 -44 -112 -3 -13 -12 -23 -18 -23 -7 0 6 -17 28
-37 22 -20 98 -90 169 -156 l130 -119 42 88 c180 383 332 874 423 1369 27 142
53 316 65 425 4 30 8 69 10 85 4 29 13 115 21 205 12 122 26 370 22 370 -1 0
-104 -103 -229 -228z"/>
<path d="M1547 3572 l-587 -587 102 -102 c57 -57 106 -103 110 -103 11 0 1168
1158 1168 1168 0 6 -162 172 -204 209 -1 1 -266 -262 -589 -585z"/>
<path d="M2882 4057 c-56 -56 -102 -106 -102 -110 0 -4 94 -101 209 -216 115
-115 207 -212 204 -215 -4 -3 -1 -6 5 -6 7 0 176 -164 377 -365 201 -201 368
-365 372 -365 5 0 54 46 110 103 l103 103 -70 69 c-38 38 -66 73 -63 78 3 6 2
7 -4 4 -13 -8 -106 87 -96 98 5 4 3 6 -2 2 -12 -6 -318 296 -310 306 3 4 2 5
-2 2 -10 -8 -403 387 -396 398 3 6 1 7 -4 4 -6 -4 -29 12 -51 36 -22 23 -71
72 -108 109 l-69 68 -103 -103z"/>
<path d="M1916 3198 l-209 -210 160 -160 161 -161 206 207 c113 113 207 210
208 216 3 9 -301 321 -312 319 -3 0 -99 -95 -214 -211z"/>
<path d="M2923 3357 c-32 -30 -72 -68 -89 -83 -189 -175 -234 -216 -267 -245
-22 -19 -58 -52 -81 -74 -24 -22 -83 -76 -131 -120 -48 -44 -95 -87 -104 -95
-9 -9 -65 -61 -126 -115 -60 -55 -121 -111 -136 -125 -14 -14 -63 -59 -109
-100 -46 -41 -90 -82 -99 -91 -9 -8 -50 -46 -91 -84 -41 -37 -100 -91 -130
-119 -30 -28 -104 -96 -165 -151 -60 -55 -117 -107 -125 -115 -8 -8 -62 -58
-120 -110 -58 -52 -109 -100 -115 -106 -5 -5 -59 -55 -119 -110 -61 -54 -117
-106 -126 -114 -20 -19 -204 -187 -239 -219 -119 -109 -124 -114 -158 -200
-19 -47 -41 -99 -48 -116 -7 -16 -83 -208 -169 -425 -86 -217 -161 -403 -167
-413 -6 -11 -9 -20 -7 -22 2 -2 239 91 528 206 l525 210 85 88 c75 78 211 225
263 285 10 12 60 66 110 120 51 54 100 108 109 119 27 30 236 259 333 363 62
67 203 221 215 234 8 10 52 57 96 106 83 90 100 109 183 200 25 27 93 102 151
164 58 63 128 139 155 169 28 30 64 68 80 86 17 17 48 52 69 76 22 24 69 76
105 115 59 63 121 130 297 323 28 31 64 70 78 88 l27 32 -198 198 c-109 109
-206 204 -215 211 -14 11 -24 6 -75 -41z"/>
<path d="M2931 2186 l-265 -265 37 -40 c20 -22 44 -49 54 -59 10 -10 65 -70
123 -132 58 -62 116 -125 130 -140 14 -14 77 -82 140 -150 63 -69 121 -132
130 -140 8 -8 62 -67 120 -129 58 -63 119 -129 135 -147 17 -18 55 -59 85 -91
30 -33 107 -115 171 -184 64 -68 128 -137 143 -154 121 -135 78 -112 623 -330
274 -109 513 -205 530 -212 l33 -13 -17 42 c-227 571 -415 1033 -422 1037 -5
3 -60 54 -122 112 -63 59 -130 121 -149 139 -19 18 -87 81 -150 140 -63 59
-128 120 -145 135 -31 28 -215 198 -271 250 -17 17 -58 54 -90 84 -68 63 -269
250 -325 302 -96 91 -222 204 -228 207 -3 1 -125 -117 -270 -262z"/>
<path d="M1762 1028 c-22 -24 -62 -68 -90 -98 -27 -30 -72 -80 -100 -110 -36
-39 -48 -59 -42 -70 17 -30 247 -251 355 -340 61 -51 169 -131 241 -179 154
-103 388 -224 433 -224 43 0 272 116 416 211 215 142 401 300 598 509 l28 30
-46 49 c-26 27 -65 69 -87 94 -22 25 -67 73 -98 106 l-58 62 -108 -112 c-124
-128 -220 -212 -349 -307 -105 -78 -261 -173 -290 -177 -42 -5 -330 188 -484
325 -74 65 -261 256 -261 265 0 18 -20 6 -58 -34z"/>
</g>
</svg>
