<?xml version="1.0" standalone="no"?>
<!DOCTYPE svg PUBLIC "-//W3C//DTD SVG 20010904//EN"
 "http://www.w3.org/TR/2001/REC-SVG-20010904/DTD/svg10.dtd">
<svg version="1.0" xmlns="http://www.w3.org/2000/svg"
 width="133.000000pt" height="112.000000pt" viewBox="0 0 133.000000 112.000000"
 preserveAspectRatio="xMidYMid meet">
<metadata>
Created by potrace 1.13, written by Peter Selinger 2001-2015
</metadata>
<g transform="translate(0.000000,112.000000) scale(0.100000,-0.100000)"
fill="#000000" stroke="none">
<path d="M592 1045 c-17 -14 -86 -96 -154 -182 -146 -187 -151 -193 -146 -198
2 -2 66 77 143 176 l140 179 8 -32 c26 -115 57 -162 130 -199 22 -12 35 -24
31 -28 -5 -5 -82 -34 -171 -66 -90 -32 -163 -62 -163 -66 0 -16 22 -9 195 55
195 72 192 73 222 -21 16 -52 43 -73 43 -33 0 26 -26 89 -46 111 -13 15 -9 19
53 42 37 14 69 24 71 22 1 -1 -2 -14 -7 -29 -6 -14 -8 -26 -5 -26 6 0 144 111
144 116 0 2 -44 4 -97 3 -92 0 -97 -1 -75 -16 12 -8 22 -18 22 -22 0 -4 -31
-17 -68 -30 l-68 -24 -66 42 c-50 32 -72 53 -87 85 -28 56 -27 84 2 88 29 4
36 47 11 65 -24 18 -28 17 -62 -12z"/>
<path d="M963 622 c10 -10 17 -22 17 -25 0 -4 -125 -7 -278 -7 -266 0 -280 1
-297 20 -15 17 -31 20 -97 20 l-79 0 20 -27 21 -26 -20 -22 c-11 -12 -20 -24
-20 -28 0 -4 33 -7 73 -7 65 0 76 3 97 25 l23 25 279 0 c153 0 278 -4 278 -8
0 -4 -5 -13 -12 -20 -6 -6 -10 -13 -7 -16 6 -5 169 47 169 54 0 6 -158 60
-175 60 -4 0 -1 -8 8 -18z"/>
<path d="M830 507 c-6 -24 -21 -55 -33 -70 l-22 -26 -178 66 c-98 36 -181 63
-184 59 -10 -10 -2 -14 167 -76 90 -33 165 -61 166 -63 2 -2 -20 -19 -49 -38
-65 -43 -93 -85 -108 -160 -7 -36 -16 -56 -22 -52 -6 3 2 -10 17 -30 16 -20
36 -37 46 -37 43 0 53 67 13 85 -25 11 -28 29 -12 72 14 38 44 69 107 110 l54
34 64 -21 c35 -12 66 -25 69 -30 3 -5 -5 -16 -17 -24 -21 -15 -16 -16 77 -16
l100 0 -40 33 c-21 17 -56 45 -76 60 l-38 28 9 -31 c5 -16 7 -30 5 -30 -4 0
-119 43 -124 46 -2 2 8 27 23 55 14 29 26 63 26 76 0 39 -27 26 -40 -20z"/>
</g>
</svg>
