<?xml version="1.0" standalone="no"?>
<!DOCTYPE svg PUBLIC "-//W3C//DTD SVG 20010904//EN"
 "http://www.w3.org/TR/2001/REC-SVG-20010904/DTD/svg10.dtd">
<svg version="1.0" xmlns="http://www.w3.org/2000/svg"
 width="131.000000pt" height="127.000000pt" viewBox="0 0 131.000000 127.000000"
 preserveAspectRatio="xMidYMid meet">
<metadata>
Created by potrace 1.13, written by Peter Selinger 2001-2015
</metadata>
<g transform="translate(0.000000,127.000000) scale(0.100000,-0.100000)"
fill="#000000" stroke="none">
<path d="M785 1085 c-5 -2 -22 -6 -37 -9 -20 -5 -33 -20 -53 -60 -15 -30 -26
-67 -25 -83 4 -54 1 -56 -41 -18 -87 79 -205 106 -304 70 -22 -8 -52 -15 -67
-15 -15 0 -38 -10 -52 -22 -24 -22 -32 -63 -27 -136 1 -18 98 -8 120 12 39 35
125 13 189 -47 38 -36 40 -47 10 -48 l-23 0 23 -9 c37 -15 28 -40 -15 -41
l-38 -1 33 -9 c30 -9 41 -27 25 -43 -5 -4 -8 -11 -9 -14 0 -4 -8 -24 -17 -44
-12 -30 -22 -38 -41 -38 -15 0 -26 -4 -26 -10 0 -5 9 -10 21 -10 15 0 19 -4
15 -16 -3 -9 -6 -18 -6 -20 0 -2 -44 -5 -97 -6 -64 -1 -77 -3 -38 -5 82 -4
125 -12 125 -23 0 -6 -7 -10 -16 -10 -13 0 -14 -3 -5 -13 14 -18 4 -27 -31
-27 -15 0 -28 -4 -28 -10 0 -5 5 -10 10 -10 15 0 12 -16 -5 -33 -9 -9 -45 -18
-91 -22 l-76 -8 6 -36 c3 -20 16 -45 29 -56 13 -11 37 -42 52 -69 31 -53 75
-86 116 -86 32 0 53 23 46 50 -4 17 0 20 25 20 41 0 93 26 125 64 14 17 30 30
34 29 5 -2 6 4 3 11 -3 8 2 28 11 46 18 35 27 34 82 -3 40 -27 41 -37 6 -38
-33 -1 -23 -5 31 -14 29 -5 36 -9 25 -16 -11 -7 -9 -9 9 -9 26 0 30 -17 5 -23
-10 -3 -4 -5 13 -6 56 -2 69 -42 19 -54 -11 -3 -3 -5 18 -6 32 -1 42 -7 69
-46 37 -53 59 -56 97 -17 14 16 46 38 71 49 53 23 75 46 66 69 -5 12 -14 15
-39 11 -31 -6 -33 -4 -57 46 -32 65 -123 163 -189 202 -54 32 -55 33 -43 53 6
9 25 6 82 -13 40 -14 90 -25 109 -25 39 0 148 47 170 73 7 10 22 17 31 17 10
0 32 12 49 26 28 23 31 30 25 63 -4 20 -8 45 -9 55 -3 32 -27 40 -75 25 -24
-8 -46 -20 -48 -27 -3 -11 2 -10 20 2 14 9 28 13 31 10 4 -4 14 -1 22 6 11 9
19 10 27 2 13 -13 0 -35 -18 -28 -7 3 -16 1 -20 -5 -3 -6 -12 -8 -20 -5 -23 9
-16 -21 11 -48 32 -33 33 -56 0 -56 -27 0 -54 40 -56 82 -1 17 -3 18 -6 6 -5
-18 -31 -23 -103 -19 -38 2 -100 19 -100 28 0 3 12 19 27 37 42 49 63 105 63
168 l0 58 26 -10 c30 -12 55 -2 30 12 -9 5 -25 27 -36 49 -11 21 -26 39 -33
39 -8 0 -24 11 -37 25 -13 14 -31 25 -41 25 -10 0 -21 5 -24 10 -3 6 -19 10
-35 10 -16 0 -32 5 -35 10 -6 10 -38 12 -60 5z m126 -41 c8 -8 22 -14 30 -14
8 0 20 -9 27 -20 7 -11 20 -20 30 -20 11 0 30 -18 45 -41 l27 -41 -32 27 c-18
16 -39 24 -50 22 -10 -3 -25 2 -34 11 -13 13 -20 13 -36 3 -16 -10 -23 -10
-37 3 -23 21 -71 20 -86 0 -10 -15 -16 -15 -51 -3 -21 7 -41 14 -43 16 -2 1 6
18 18 37 14 22 32 36 49 39 43 7 126 -4 143 -19z m-368 -92 c54 -25 107 -77
145 -144 24 -43 31 -69 36 -138 5 -73 3 -90 -15 -127 -11 -24 -27 -43 -35 -43
-26 0 -89 31 -116 57 -27 26 -38 73 -18 73 5 0 9 10 7 22 -1 16 5 23 23 28 21
5 22 7 8 13 -10 3 -18 16 -18 27 0 76 -87 142 -204 156 -51 6 -55 9 -61 36 -8
35 -7 36 42 54 49 18 149 11 206 -14z m320 22 c3 -4 -4 -15 -16 -25 -21 -17
-20 -18 36 -3 46 12 62 12 73 3 11 -9 12 -15 3 -25 -13 -15 -9 -17 15 -8 9 3
13 10 10 15 -3 5 -1 9 4 9 29 0 29 -118 1 -180 -23 -52 -53 -86 -91 -106 -36
-19 -56 -18 -103 6 l-40 19 34 -28 c32 -29 33 -29 12 -40 -12 -7 -21 -20 -21
-30 0 -10 -11 -39 -25 -65 -14 -26 -25 -49 -25 -51 0 -2 10 -6 23 -8 12 -2 -5
-5 -38 -5 -80 -2 -124 9 -177 45 -43 29 -60 65 -39 86 7 7 19 0 38 -23 26 -32
112 -80 144 -80 21 0 59 83 59 130 0 33 3 38 18 33 15 -6 15 -5 2 11 -8 10
-15 35 -16 56 -1 22 -17 66 -36 100 -24 45 -30 63 -21 68 7 5 12 23 10 43 -2
38 16 57 21 22 2 -13 8 -24 13 -24 19 -3 24 -5 37 -12 8 -6 12 -2 12 10 0 43
58 82 83 57z m208 -374 c60 0 68 -2 83 -25 21 -32 16 -39 -47 -72 -68 -34
-109 -33 -182 3 -59 29 -60 30 -58 69 1 36 1 38 -9 15 -25 -61 -48 -96 -69
-107 -13 -6 -26 -10 -30 -7 -14 8 39 119 63 131 57 28 82 30 133 11 30 -11 77
-18 116 -18z m-557 -99 c36 -40 115 -65 208 -67 99 -1 110 -6 202 -93 57 -55
106 -118 119 -154 5 -13 -6 -30 -41 -62 -26 -25 -49 -45 -52 -45 -3 0 -11 14
-17 30 -6 17 -7 30 -2 30 5 0 9 5 9 10 0 6 -8 10 -18 10 -26 0 -34 11 -21 27
9 10 7 13 -7 13 -16 0 -17 2 -4 10 13 8 12 10 -3 10 -11 0 -47 25 -80 56 -67
60 -144 110 -154 100 -4 -3 -23 -37 -43 -74 -43 -80 -82 -106 -184 -122 -83
-13 -108 -1 -137 66 -22 49 -19 65 11 57 37 -10 69 6 84 41 8 19 23 37 35 41
11 3 23 15 26 26 4 10 16 20 28 20 17 1 18 2 5 6 -21 5 -24 33 -4 33 9 0 12 8
8 25 -5 30 8 32 32 6z"/>
</g>
</svg>
