<?xml version="1.0" standalone="no"?>
<!DOCTYPE svg PUBLIC "-//W3C//DTD SVG 20010904//EN"
 "http://www.w3.org/TR/2001/REC-SVG-20010904/DTD/svg10.dtd">
<svg version="1.0" xmlns="http://www.w3.org/2000/svg"
 width="119.000000pt" height="117.000000pt" viewBox="0 0 119.000000 117.000000"
 preserveAspectRatio="xMidYMid meet">
<metadata>
Created by potrace 1.13, written by Peter Selinger 2001-2015
</metadata>
<g transform="translate(0.000000,117.000000) scale(0.100000,-0.100000)"
fill="#000000" stroke="none">
<path d="M475 1154 c-260 -51 -460 -282 -471 -544 -9 -229 107 -429 313 -542
122 -67 325 -85 455 -40 245 85 414 340 394 593 -12 148 -73 275 -181 378 -88
83 -187 135 -298 156 -93 18 -119 18 -212 -1z m256 -60 c30 -9 79 -29 109 -45
55 -29 150 -109 149 -125 0 -8 -467 -364 -505 -387 -10 -6 -17 0 -24 17 -10
27 -24 33 -35 16 -3 -5 3 -18 15 -30 11 -11 20 -24 20 -29 0 -16 -117 -101
-140 -101 -25 0 -37 -25 -20 -45 19 -23 49 -18 55 8 4 14 29 35 70 59 l64 36
15 -24 c9 -13 16 -30 16 -39 0 -8 9 -15 20 -15 24 0 26 17 3 42 -14 16 -15 20
-2 32 13 12 463 286 517 315 12 6 22 7 22 2 0 -5 -102 -71 -227 -147 -339
-205 -310 -184 -289 -199 10 -8 16 -23 14 -37 -2 -18 -9 -23 -33 -23 -27 0
-43 15 -58 59 -5 14 -114 -53 -120 -74 -7 -27 -33 -35 -63 -21 -21 9 -25 17
-22 48 3 33 7 38 35 44 18 3 54 24 79 45 46 37 47 38 26 52 -12 8 -22 22 -22
31 0 40 58 57 67 21 3 -11 8 -20 11 -20 16 0 353 263 349 273 -7 21 -108 65
-176 77 -197 34 -387 -66 -451 -238 -54 -144 2 -358 118 -450 94 -75 245 -120
333 -101 105 24 198 98 200 160 l0 24 9 -23 c26 -63 -78 -172 -197 -207 -139
-41 -322 14 -440 132 -50 50 -109 164 -129 249 -27 116 -7 273 50 382 28 55
137 162 205 202 36 22 91 46 121 54 74 20 194 20 261 0z m308 -235 c20 -34 21
-43 10 -54 -8 -7 -132 -85 -277 -173 -246 -151 -263 -159 -273 -140 -6 11 -9
22 -6 24 15 15 512 384 517 384 3 0 17 -18 29 -41z"/>
<path d="M550 989 c-55 -8 -144 -42 -155 -58 -3 -5 16 -2 43 6 34 11 78 13
162 10 120 -4 172 -19 241 -68 27 -19 34 -20 55 -9 l24 13 -20 22 c-33 35
-119 72 -197 84 -79 12 -75 12 -153 0z"/>
</g>
</svg>
