<?xml version="1.0" standalone="no"?>
<!DOCTYPE svg PUBLIC "-//W3C//DTD SVG 20010904//EN"
 "http://www.w3.org/TR/2001/REC-SVG-20010904/DTD/svg10.dtd">
<svg version="1.0" xmlns="http://www.w3.org/2000/svg"
 width="116.000000pt" height="116.000000pt" viewBox="0 0 116.000000 116.000000"
 preserveAspectRatio="xMidYMid meet">
<metadata>
Created by potrace 1.13, written by Peter Selinger 2001-2015
</metadata>
<g transform="translate(0.000000,116.000000) scale(0.100000,-0.100000)"
fill="#000000" stroke="none">
<path d="M460 1145 c-194 -43 -367 -202 -430 -395 -34 -102 -34 -254 -1 -350
87 -252 310 -406 576 -396 361 14 616 348 539 705 -65 305 -377 503 -684 436z
m226 -46 c196 -35 372 -204 419 -400 78 -334 -179 -659 -523 -659 -243 0 -466
183 -517 425 -18 88 -18 132 0 220 61 285 332 467 621 414z"/>
<path d="M600 1084 c0 -3 106 -121 235 -262 130 -141 234 -259 233 -263 -2 -4
-102 -114 -223 -244 -121 -130 -221 -240 -223 -244 -4 -12 87 5 146 27 158 61
278 197 317 363 59 253 -87 512 -336 598 -55 19 -149 35 -149 25z"/>
<path d="M400 1051 c-96 -38 -191 -116 -246 -202 -35 -55 -74 -164 -74 -206 0
-28 4 -33 23 -33 13 0 27 -4 32 -8 17 -14 135 -2 135 13 0 8 -5 17 -10 20 -17
11 9 45 34 45 29 0 48 -22 39 -45 -6 -17 -1 -18 67 -12 40 3 74 8 77 10 2 3
-25 50 -61 106 -36 56 -63 101 -60 101 3 0 32 -21 65 -46 33 -25 62 -45 63
-43 2 2 -23 51 -55 109 -32 57 -56 106 -54 108 2 2 52 -32 112 -75 59 -44 114
-83 121 -87 12 -7 -23 52 -124 212 -19 28 -35 52 -36 52 -2 -1 -23 -9 -48 -19z"/>
<path d="M270 655 c0 -3 5 -14 12 -24 22 -36 4 -49 -74 -53 -40 -2 -80 1 -89
6 -21 12 -49 1 -49 -18 0 -8 7 -22 16 -31 15 -15 18 -15 34 0 16 14 31 16 95
10 l76 -7 -7 -32 c-11 -50 -10 -60 9 -64 14 -3 17 4 17 32 0 43 -32 42 370 21
l285 -14 37 36 c21 21 38 42 38 48 0 5 -17 24 -38 40 l-37 31 -290 -17 c-403
-24 -369 -25 -361 11 5 27 3 30 -19 30 -14 0 -25 -2 -25 -5z m725 -67 l26 -23
-28 -30 -28 -30 -185 7 c-102 3 -249 10 -327 13 -142 7 -143 7 -143 31 0 20 5
24 33 25 17 1 131 7 252 13 347 20 369 20 400 -6z"/>
<path d="M136 521 c-4 -6 -18 -11 -32 -11 -30 0 -31 -15 -1 -100 45 -127 135
-231 249 -288 106 -53 107 -53 162 24 47 66 47 66 14 43 -18 -12 -51 -36 -73
-53 l-40 -30 25 30 c13 16 65 71 114 122 50 50 88 92 84 92 -3 0 -76 -31 -162
-69 -142 -63 -181 -74 -142 -42 8 6 42 46 77 88 l62 75 -64 -6 -64 -7 73 43
c39 23 72 45 72 49 0 3 -36 7 -79 8 l-80 2 -3 -33 c-4 -40 -35 -49 -61 -20
-14 16 -16 25 -7 47 6 15 9 29 7 31 -11 11 -125 15 -131 5z"/>
</g>
</svg>
