<?xml version="1.0" standalone="no"?>
<!DOCTYPE svg PUBLIC "-//W3C//DTD SVG 20010904//EN"
 "http://www.w3.org/TR/2001/REC-SVG-20010904/DTD/svg10.dtd">
<svg version="1.0" xmlns="http://www.w3.org/2000/svg"
 width="64.000000pt" height="64.000000pt" viewBox="0 0 64.000000 64.000000"
 preserveAspectRatio="xMidYMid meet">
<metadata>
Created by potrace 1.13, written by Peter Selinger 2001-2015
</metadata>
<g transform="translate(0.000000,64.000000) scale(0.100000,-0.100000)"
fill="#000000" stroke="none">
<path d="M236 625 c-47 -17 -98 -52 -126 -88 -27 -34 -18 -34 25 -1 114 86
270 51 300 -67 5 -20 1 -27 -19 -37 -54 -24 -71 -116 -28 -155 52 -48 124 -37
162 25 28 45 27 137 -1 195 -53 110 -198 169 -313 128z"/>
<path d="M133 505 c-61 -31 -106 -92 -122 -166 -29 -136 74 -286 209 -304 l45
-6 -50 26 c-127 65 -173 207 -91 284 21 20 25 20 52 6 37 -19 57 -19 94 0 36
19 50 43 50 89 0 85 -91 120 -187 71z"/>
<path d="M598 367 c10 -128 -62 -227 -167 -227 -54 0 -70 7 -64 31 3 10 0 32
-7 49 -27 65 -110 81 -161 31 -58 -58 -27 -144 70 -194 90 -45 190 -32 266 35
56 50 85 104 92 174 5 50 -11 139 -27 149 -3 2 -5 -19 -2 -48z"/>
</g>
</svg>
