<?xml version="1.0" standalone="no"?>
<!DOCTYPE svg PUBLIC "-//W3C//DTD SVG 20010904//EN"
 "http://www.w3.org/TR/2001/REC-SVG-20010904/DTD/svg10.dtd">
<svg version="1.0" xmlns="http://www.w3.org/2000/svg"
 width="450.000000pt" height="470.000000pt" viewBox="0 0 450.000000 470.000000"
 preserveAspectRatio="xMidYMid meet">
<metadata>
Created by potrace 1.13, written by Peter Selinger 2001-2015
</metadata>
<g transform="translate(0.000000,470.000000) scale(0.100000,-0.100000)"
fill="#000000" stroke="none">
<path d="M1987 4585 c-272 -33 -540 -117 -787 -246 -107 -57 -282 -167 -326
-206 -10 -10 -42 -36 -69 -58 -85 -68 -230 -216 -304 -310 -39 -49 -75 -95
-81 -101 -5 -7 -30 -45 -56 -85 -193 -302 -306 -614 -349 -968 -14 -113 -14
-422 0 -516 45 -307 109 -516 231 -755 312 -612 895 -1055 1561 -1184 172 -33
250 -41 433 -41 157 0 270 7 370 24 633 108 1173 459 1523 991 139 212 264
508 315 750 39 180 51 316 47 525 -6 285 -48 501 -149 765 -38 99 -125 276
-157 322 -11 14 -19 28 -19 31 0 10 -83 132 -134 197 -28 36 -58 74 -66 84
-37 47 -232 237 -300 292 -128 104 -269 193 -425 269 -128 63 -291 129 -346
140 -8 2 -40 10 -70 19 -30 9 -70 19 -89 22 -19 3 -51 9 -70 14 -19 5 -60 12
-90 15 -30 4 -64 9 -75 12 -49 11 -418 10 -518 -2z m593 -160 c898 -151 1580
-835 1737 -1740 24 -141 24 -509 0 -650 -62 -356 -204 -685 -414 -952 -330
-423 -789 -696 -1328 -790 -153 -26 -519 -24 -679 5 -811 148 -1457 740 -1666
1526 -53 199 -64 291 -64 531 -1 247 12 351 69 559 174 635 638 1149 1262
1397 148 59 355 108 563 133 78 9 429 -3 520 -19z"/>
<path d="M1562 3669 c-46 -9 -261 -134 -294 -170 -22 -23 -28 -39 -28 -74 0
-34 -5 -47 -20 -55 -36 -19 -223 -48 -443 -69 -118 -12 -249 -26 -292 -32
l-77 -12 6 -37 c3 -20 17 -77 31 -126 106 -367 299 -693 564 -950 42 -41 79
-74 83 -74 9 0 119 144 233 305 134 190 285 369 299 354 2 -2 38 -65 81 -139
42 -74 81 -142 86 -150 41 -69 119 -203 119 -206 0 -3 11 -22 25 -44 14 -22
25 -44 25 -49 0 -5 -124 -224 -276 -487 -438 -757 -444 -769 -444 -798 0 -57
25 -81 169 -165 179 -104 222 -107 275 -22 25 40 180 307 421 726 76 132 140
242 143 245 2 3 6 1 8 -5 16 -43 570 -985 590 -1002 46 -42 88 -32 241 54 142
82 173 111 173 167 0 31 -2 35 -408 736 -130 223 -253 436 -275 474 l-40 70
19 35 c16 30 141 250 283 498 20 35 39 63 42 63 20 0 227 -250 291 -351 9 -14
38 -50 65 -80 27 -29 54 -67 61 -83 14 -32 101 -146 112 -146 14 0 217 217
281 300 171 220 299 482 375 765 13 50 24 97 24 106 0 20 -64 31 -359 59 -237
23 -383 46 -425 66 -16 8 -34 14 -40 14 -7 0 -10 16 -8 44 3 37 -1 48 -25 74
-27 30 -245 162 -291 176 -31 10 -88 -11 -112 -41 l-21 -26 -38 21 c-81 46
-125 26 -188 -82 -211 -366 -223 -388 -223 -422 0 -47 12 -68 57 -95 21 -12
40 -24 42 -25 4 -4 -202 -363 -209 -363 -7 -1 -213 359 -209 363 2 1 21 13 42
25 20 13 42 32 48 43 25 47 13 80 -113 298 -155 268 -147 256 -175 269 -36 17
-71 13 -114 -11 l-38 -21 -21 25 c-25 33 -66 47 -108 37z m63 -69 c10 -11 16
-22 14 -24 -26 -22 -312 -176 -328 -176 -17 0 -21 33 -7 55 18 28 252 164 282
165 11 0 29 -9 39 -20z m1431 -51 c126 -72 160 -102 148 -133 -7 -19 -24 -16
-99 22 -43 21 -232 129 -244 139 -9 7 33 43 51 43 11 0 76 -32 144 -71z
m-1228 44 c24 -21 272 -451 272 -472 0 -25 -13 -5 -144 224 -70 120 -132 223
-139 227 -26 17 -57 4 -223 -92 -94 -55 -201 -113 -237 -130 -119 -54 -271
-88 -492 -110 -60 -6 -134 -13 -162 -16 -33 -3 -53 -2 -53 5 0 12 29 17 180
31 190 18 386 52 455 80 85 35 181 83 310 157 166 96 197 113 206 113 4 0 16
-8 27 -17z m1047 -78 c319 -187 413 -217 782 -254 171 -16 205 -23 191 -36 -7
-8 -300 21 -408 40 -198 34 -272 64 -532 213 -98 56 -186 102 -198 102 -11 0
-27 -8 -36 -17 -9 -10 -74 -119 -145 -243 -71 -124 -129 -217 -129 -207 0 23
10 42 142 272 60 105 119 198 130 208 27 23 36 20 203 -78z m-2249 -362 c55
-193 152 -397 270 -573 58 -88 192 -254 233 -290 44 -39 44 -45 6 -99 -20 -28
-43 -51 -50 -51 -15 0 -159 153 -232 246 -122 156 -240 366 -307 547 -35 94
-89 278 -83 284 5 4 111 21 126 19 8 0 23 -35 37 -83z m3367 72 c26 -3 47 -7
47 -8 0 -1 -11 -44 -25 -94 -72 -269 -206 -532 -384 -756 -82 -103 -200 -227
-216 -227 -12 0 -85 92 -85 106 0 3 38 47 85 96 222 236 383 532 481 886 2 7
13 11 26 8 13 -3 44 -8 71 -11z m-1890 -449 c87 -151 107 -193 102 -214 -8
-31 1 -44 -139 201 -97 170 -116 215 -83 204 6 -2 60 -88 120 -191z m432 184
c5 -8 -250 -464 -332 -593 -13 -21 -28 -49 -34 -63 -5 -14 -24 -49 -43 -78
-25 -38 -450 -772 -792 -1368 -3 -4 0 -9 5 -12 11 -7 15 0 268 439 105 182
275 476 378 655 104 179 245 424 315 545 243 423 262 455 266 455 4 0 157 -85
172 -95 1 -2 -46 -87 -106 -191 -60 -104 -119 -209 -132 -234 -12 -25 -37 -67
-55 -95 -18 -27 -44 -70 -58 -95 -13 -25 -125 -218 -248 -430 -122 -212 -311
-538 -419 -725 l-196 -340 25 -17 c14 -10 31 -18 36 -18 6 0 36 44 67 98 31
53 174 302 318 552 145 250 309 535 366 633 57 98 104 180 104 183 0 2 41 72
90 155 50 82 90 152 90 154 0 3 18 35 40 71 22 36 40 72 40 79 0 8 4 17 10 20
5 3 28 37 51 75 23 39 45 70 50 70 25 0 16 -34 -25 -105 -25 -42 -46 -78 -46
-80 0 -6 -140 -257 -159 -283 -33 -48 -521 -888 -886 -1525 -42 -74 -77 -123
-91 -129 -21 -10 -41 -1 -160 68 -144 83 -162 102 -140 145 12 23 83 146 517
899 113 195 217 375 231 400 63 112 380 658 425 733 34 57 46 66 58 47z m-484
-217 c62 -109 117 -205 122 -213 9 -15 -41 -112 -91 -175 -23 -29 -24 -29 -35
-10 -7 11 -16 28 -22 37 -5 10 -44 77 -86 150 -43 73 -100 171 -127 218 -28
47 -48 88 -46 92 6 9 156 98 165 98 4 0 58 -89 120 -197z m-320 -10 c47 -84
194 -337 240 -414 38 -63 48 -102 31 -113 -5 -3 -27 27 -51 67 -23 40 -64 108
-91 152 -27 44 -50 83 -50 88 0 4 -32 62 -71 129 -64 110 -77 148 -50 148 5 0
24 -26 42 -57z m929 -923 c83 -146 169 -294 190 -330 257 -437 350 -607 348
-635 -3 -26 -17 -37 -141 -109 -120 -69 -141 -78 -161 -68 -16 7 -65 83 -146
224 -68 117 -201 348 -297 512 -149 256 -172 302 -160 314 15 14 0 38 506
-835 58 -101 110 -183 116 -183 5 0 22 8 36 18 l26 17 -154 265 c-85 146 -226
390 -314 542 l-160 277 59 101 59 101 326 -564 c179 -311 332 -576 338 -591
12 -25 37 -31 32 -8 -1 6 -155 275 -342 598 -282 488 -338 591 -330 607 6 10
12 17 13 15 2 -1 72 -122 156 -268z"/>
</g>
</svg>
